# xmcd CD database file
#
# Track frame offsets:
#	150
#	11694
#	26143
#	42270
#	56329
#	67129
#	80800
#	94549
#	109346
#	122232
#	132035
#	146509
#	157231
#
# Disc length: 2309 seconds
#
# Revision: 0
# Processed by: cddbd v1.5.2PL0 Copyright (c) Steve Scherf et al.
# Submitted via: jetAudio 7
#
DISCID=b909030d
DTITLE=John Williamson - Hillbilly Road
DYEAR=1900
DGENRE=Country
TTITLE0=Flowers On The Concrete
TTITLE1=Drink A Little Love
TTITLE2=Dark Irish Eyes
TTITLE3=Hillbilly Road
TTITLE4=Catch A Virgin
TTITLE5=Cydi
TTITLE6=Pmarra Knatcha (My Home In The Bush)
TTITLE7=Australia Is Another Word For Free
TTITLE8=Better Than A Picture
TTITLE9=Rivers, Wood ‘N’ Wire
TTITLE10=Beach Of Love
TTITLE11=Tomorrow’s Worries
TTITLE12=The Joy Is In The Journey
EXTD=
EXTT0=
EXTT1=
EXTT2=
EXTT3=
EXTT4=
EXTT5=
EXTT6=
EXTT7=
EXTT8=
EXTT9=
EXTT10=
EXTT11=
EXTT12=
PLAYORDER=
